<?xml version="1.0" encoding="UTF-8"?>
<svg id="Layer_1"
    xmlns="http://www.w3.org/2000/svg" viewBox="0 0 1024 1024">
    <defs>
        <style>.cls-1{fill:#fff;}</style>
    </defs>
    <circle class="cls-1" cx="512" cy="512" r="512"/>
    <g>
        <path d="M569.82,568.71c-10.75,0-21.58-3.43-30.74-10.54-21.93-17-25.92-48.56-8.92-70.47,32.49-41.9,46.41-98.93,35.45-145.25-6.38-27,10.33-54.06,37.33-60.45,26.98-6.37,54.06,10.33,60.45,37.33,17.93,75.87-2.69,163.97-53.83,229.92-9.9,12.77-24.73,19.46-39.73,19.46Z"/>
        <path d="M407.71,539.76c-10.75,0-21.58-3.43-30.75-10.54-21.92-17-25.91-48.56-8.91-70.48,32.64-42.08,43.18-85.1,32.21-131.51-6.38-26.99,10.34-54.05,37.34-60.44,26.99-6.39,54.06,10.35,60.44,37.34,17.89,75.68,.38,150.43-50.6,216.18-9.9,12.76-24.73,19.45-39.73,19.45Z"/>
        <path d="M558.69,872.56c-179.34,0-346.48-114.37-404.86-293.91-8.57-26.38,5.86-54.73,32.24-63.3,26.36-8.57,54.73,5.86,63.3,32.24,26.83,82.54,84.21,149.69,161.55,189.08,77.34,39.38,165.39,46.3,247.94,19.47,26.39-8.56,54.73,5.86,63.3,32.24,8.57,26.38-5.86,54.73-32.24,63.3-43.52,14.16-87.76,20.89-131.23,20.89Z"/>
    </g>
</svg>